<mxfile host="app.diagrams.net" modified="2023-09-27T16:32:53.135Z" agent="Mozilla/5.0 (X11; Linux x86_64; rv:102.0) Gecko/20100101 Firefox/102.0" etag="ALP3YY_OilCBk5U85ZzH" version="21.8.2" type="device">
  <diagram name="PÃ¡gina-1" id="dP5GfDgj5PEmdg-_mJoh">
    <mxGraphModel dx="880" dy="478" grid="1" gridSize="10" guides="1" tooltips="1" connect="1" arrows="1" fold="1" page="1" pageScale="1" pageWidth="827" pageHeight="1169" math="0" shadow="0">
      <root>
        <mxCell id="0" />
        <mxCell id="1" parent="0" />
        <mxCell id="PAMum6EBzUS5j07vVSav-1" value="&lt;div&gt;&lt;font color=&quot;#000000&quot;&gt;&lt;b&gt;nodo2&lt;/b&gt;&lt;/font&gt;&lt;/div&gt;&lt;div&gt;&lt;font color=&quot;#000000&quot;&gt;&lt;b&gt;usuario2&lt;/b&gt;&lt;/font&gt;&lt;br&gt;&lt;/div&gt;" style="fontColor=#0066CC;verticalAlign=top;verticalLabelPosition=bottom;labelPosition=center;align=center;html=1;outlineConnect=0;fillColor=#CCCCCC;strokeColor=#6881B3;gradientColor=none;gradientDirection=north;strokeWidth=2;shape=mxgraph.networks.pc;" vertex="1" parent="1">
          <mxGeometry x="380" y="220" width="100" height="70" as="geometry" />
        </mxCell>
        <mxCell id="PAMum6EBzUS5j07vVSav-4" value="" style="edgeStyle=orthogonalEdgeStyle;rounded=0;orthogonalLoop=1;jettySize=auto;html=1;entryX=0;entryY=0.5;entryDx=0;entryDy=0;entryPerimeter=0;" edge="1" parent="1" source="PAMum6EBzUS5j07vVSav-2" target="PAMum6EBzUS5j07vVSav-1">
          <mxGeometry relative="1" as="geometry">
            <mxPoint x="260" y="255" as="targetPoint" />
          </mxGeometry>
        </mxCell>
        <mxCell id="PAMum6EBzUS5j07vVSav-5" value="&lt;font size=&quot;1&quot;&gt;&lt;b style=&quot;font-size: 15px;&quot;&gt;SSH &lt;/b&gt;&lt;/font&gt;" style="edgeLabel;html=1;align=center;verticalAlign=middle;resizable=0;points=[];" vertex="1" connectable="0" parent="PAMum6EBzUS5j07vVSav-4">
          <mxGeometry x="-0.2947" y="-2" relative="1" as="geometry">
            <mxPoint x="23" y="13" as="offset" />
          </mxGeometry>
        </mxCell>
        <mxCell id="PAMum6EBzUS5j07vVSav-2" value="&lt;div&gt;&lt;b&gt;&lt;font color=&quot;#000000&quot;&gt;nodo1&lt;/font&gt;&lt;/b&gt;&lt;/div&gt;&lt;div&gt;&lt;b&gt;&lt;font color=&quot;#000000&quot;&gt;usuario1&lt;/font&gt;&lt;/b&gt;&lt;br&gt;&lt;/div&gt;" style="fontColor=#0066CC;verticalAlign=top;verticalLabelPosition=bottom;labelPosition=center;align=center;html=1;outlineConnect=0;fillColor=#CCCCCC;strokeColor=#6881B3;gradientColor=none;gradientDirection=north;strokeWidth=2;shape=mxgraph.networks.pc;" vertex="1" parent="1">
          <mxGeometry x="90" y="220" width="100" height="70" as="geometry" />
        </mxCell>
        <mxCell id="PAMum6EBzUS5j07vVSav-6" value="&lt;div&gt;10.0.0.10&lt;/div&gt;" style="text;strokeColor=none;align=center;fillColor=none;html=1;verticalAlign=middle;whiteSpace=wrap;rounded=0;" vertex="1" parent="1">
          <mxGeometry x="120" y="233" width="60" height="30" as="geometry" />
        </mxCell>
        <mxCell id="PAMum6EBzUS5j07vVSav-7" value="10.0.0.11" style="text;strokeColor=none;align=center;fillColor=none;html=1;verticalAlign=middle;whiteSpace=wrap;rounded=0;" vertex="1" parent="1">
          <mxGeometry x="400" y="240" width="83" height="16" as="geometry" />
        </mxCell>
      </root>
    </mxGraphModel>
  </diagram>
</mxfile>
